<?xml version="1.0" encoding="utf-8"?>
<!-- Generator: Adobe Illustrator 26.2.1, SVG Export Plug-In . SVG Version: 6.00 Build 0)  -->
<svg version="1.1" xmlns="http://www.w3.org/2000/svg" xmlns:xlink="http://www.w3.org/1999/xlink" x="0px" y="0px"
	 viewBox="0 0 1440 900" style="enable-background:new 0 0 1440 900;" xml:space="preserve">
<style type="text/css">
	.st0{opacity:0;fill:#FFFFFF;}
	.st1{fill:#D3442C;stroke:#000000;stroke-width:0.5;}
	.st2{fill:#28BD7B;stroke:#000000;stroke-width:0.5;}
	.st3{fill:#FF3585;stroke:#000000;stroke-width:0.5;}
	.st4{fill:#9B8578;stroke:#000000;stroke-width:0.5;}
	.st5{fill:#38C2FF;stroke:#000000;stroke-width:0.5;}
	.st6{fill:#FFA639;stroke:#000000;stroke-width:0.5;}
	.st7{fill:#7F7AFF;stroke:#000000;stroke-width:0.5;}
	.st8{fill:#88C02F;stroke:#000000;stroke-width:0.5;}
	.st9{font-family:'ArialMT';}
	.st10{font-size:7.2158px;}
</style>
<g id="background">
	<rect id="background-rectangle" x="0.5" y="0.5" class="st0" width="1440" height="900"/>
</g>
<g id="nodes_1_">
	<g id="cluster-8">
		<circle class="st1" cx="597.2" cy="817.5" r="5.1"/>
		<circle class="st1" cx="582.2" cy="806.3" r="6.4"/>
		<circle class="st1" cx="589.7" cy="856.1" r="4.7"/>
		<circle class="st1" cx="587.6" cy="830" r="6.3"/>
		<circle class="st1" cx="584.7" cy="845.5" r="5.1"/>
		<circle class="st1" cx="578.5" cy="856" r="4.7"/>
		<circle class="st1" cx="567.2" cy="840.6" r="5.1"/>
		<circle class="st1" cx="579.4" cy="819.2" r="5.1"/>
		<circle class="st1" cx="568.2" cy="815.1" r="4.6"/>
		<circle class="st1" cx="569.2" cy="828.7" r="4.8"/>
		<circle class="st1" cx="583.2" cy="867" r="4.4"/>
		<circle class="st1" cx="602.1" cy="830.9" r="4.7"/>
		<circle class="st1" cx="559.1" cy="833.1" r="4.6"/>
	</g>
	<g id="cluster-7">
		<circle class="st2" cx="909.1" cy="313.2" r="5.6"/>
		<circle class="st2" cx="925.1" cy="290.9" r="5.8"/>
		<circle class="st2" cx="909.8" cy="290.6" r="6.7"/>
		<circle class="st2" cx="917.5" cy="301.6" r="5.6"/>
		<circle class="st2" cx="930.6" cy="279.5" r="4.4"/>
		<circle class="st2" cx="939.6" cy="272.6" r="4.4"/>
		<circle class="st2" cx="936.8" cy="287.5" r="4.4"/>
		<circle class="st2" cx="947.5" cy="259.8" r="4.5"/>
		<circle class="st2" cx="932" cy="257.1" r="4.9"/>
		<circle class="st2" cx="922.1" cy="262.1" r="4.6"/>
		<circle class="st2" cx="897.1" cy="289.6" r="4.7"/>
		<circle class="st2" cx="907.2" cy="276.7" r="4.4"/>
	</g>
	<g id="cluster-6">
		<circle class="st3" cx="714.4" cy="409.1" r="5.4"/>
		<circle class="st3" cx="724.8" cy="462.8" r="13.1"/>
		<circle class="st3" cx="703" cy="458.5" r="4.6"/>
		<circle class="st3" cx="728.7" cy="427.5" r="6.1"/>
		<circle class="st3" cx="688.1" cy="448.7" r="6.1"/>
		<circle class="st3" cx="693.8" cy="437" r="5.1"/>
		<circle class="st3" cx="710" cy="442.8" r="6.3"/>
		<circle class="st3" cx="866.8" cy="444.5" r="4.5"/>
		<circle class="st3" cx="686.4" cy="366.3" r="4.4"/>
		<circle class="st3" cx="722.8" cy="440.7" r="5.4"/>
		<circle class="st3" cx="662.2" cy="414.9" r="4.7"/>
		<circle class="st3" cx="673.4" cy="414" r="4.8"/>
		<circle class="st3" cx="709.7" cy="298.7" r="4.4"/>
		<circle class="st3" cx="716.4" cy="431.2" r="4.8"/>
		<circle class="st3" cx="666.6" cy="404.5" r="5.1"/>
		<circle class="st3" cx="670" cy="429" r="4.6"/>
		<circle class="st3" cx="653.8" cy="439.1" r="5"/>
		<circle class="st3" cx="682.9" cy="298.1" r="4.7"/>
		<circle class="st3" cx="699.4" cy="407.1" r="5.1"/>
		<circle class="st3" cx="687.5" cy="406.2" r="4.9"/>
		<circle class="st3" cx="693.2" cy="419.7" r="5.8"/>
		<circle class="st3" cx="674.1" cy="349.9" r="4.6"/>
		<circle class="st3" cx="706" cy="419.2" r="5.1"/>
		<circle class="st3" cx="715.7" cy="271.2" r="4.7"/>
		<circle class="st3" cx="670.2" cy="320" r="4.5"/>
		<circle class="st3" cx="673.9" cy="329.9" r="4.4"/>
		<circle class="st3" cx="728.1" cy="402.8" r="4.4"/>
		<circle class="st3" cx="740.9" cy="435.3" r="4.4"/>
		<circle class="st3" cx="652.1" cy="329.3" r="4.4"/>
		<circle class="st3" cx="735.9" cy="443.4" r="4.4"/>
	</g>
	<g id="cluster-5">
		<circle class="st4" cx="1000.4" cy="579.2" r="7"/>
		<circle class="st4" cx="958.8" cy="570.2" r="5.8"/>
		<circle class="st4" cx="979.7" cy="599.5" r="6.1"/>
		<circle class="st4" cx="1068" cy="567.3" r="4.9"/>
		<circle class="st4" cx="1006.1" cy="591.2" r="4.9"/>
		<circle class="st4" cx="984.7" cy="583.9" r="7.2"/>
		<circle class="st4" cx="983.1" cy="557" r="16.3"/>
		<circle class="st4" cx="1012.6" cy="565.8" r="8.9"/>
		<circle class="st4" cx="1097.4" cy="615.2" r="4.5"/>
		<circle class="st4" cx="1037.6" cy="584" r="5"/>
		<circle class="st4" cx="1057.7" cy="584.5" r="4.8"/>
		<circle class="st4" cx="1026.1" cy="577" r="5.8"/>
		<circle class="st4" cx="1015.1" cy="583.4" r="5.9"/>
		<circle class="st4" cx="956.2" cy="544.1" r="5.7"/>
		<circle class="st4" cx="1043.5" cy="561.4" r="4.7"/>
		<circle class="st4" cx="987.5" cy="525.3" r="7.7"/>
		<circle class="st4" cx="851.1" cy="596.1" r="6.6"/>
		<circle class="st4" cx="1035.4" cy="549.8" r="4.8"/>
		<circle class="st4" cx="957.9" cy="557" r="5"/>
		<circle class="st4" cx="1048.1" cy="574" r="5"/>
		<circle class="st4" cx="1017" cy="596.3" r="4.6"/>
		<circle class="st4" cx="1047.2" cy="614.8" r="5.4"/>
		<circle class="st4" cx="999.9" cy="536.4" r="5.6"/>
		<circle class="st4" cx="1030" cy="562.3" r="5.8"/>
		<circle class="st4" cx="995.3" cy="598.1" r="6.3"/>
		<circle class="st4" cx="1099.5" cy="591.5" r="5.1"/>
		<circle class="st4" cx="1124.5" cy="533" r="4.5"/>
		<circle class="st4" cx="1038.2" cy="537.1" r="4.6"/>
		<circle class="st4" cx="1008.1" cy="547.1" r="5.7"/>
		<circle class="st4" cx="1020.1" cy="522" r="4.6"/>
		<circle class="st4" cx="1124.9" cy="595.9" r="4.5"/>
		<circle class="st4" cx="1111.3" cy="593.9" r="4.6"/>
		<circle class="st4" cx="1080.4" cy="571.6" r="4.8"/>
		<circle class="st4" cx="1005.4" cy="524.5" r="5.4"/>
		<circle class="st4" cx="1017.1" cy="612" r="5.3"/>
		<circle class="st4" cx="1028.8" cy="611.7" r="5.1"/>
		<circle class="st4" cx="1056.2" cy="606.5" r="5.3"/>
		<circle class="st4" cx="1055.2" cy="564.4" r="4.4"/>
		<circle class="st4" cx="981.2" cy="613.1" r="5.4"/>
		<circle class="st4" cx="1071.5" cy="578.4" r="4.8"/>
		<circle class="st4" cx="1110.4" cy="567.7" r="4.4"/>
		<circle class="st4" cx="1021.8" cy="551.6" r="5.7"/>
		<circle class="st4" cx="1097.5" cy="560" r="4.4"/>
		<circle class="st4" cx="1014.2" cy="534.7" r="5.8"/>
		<circle class="st4" cx="971.6" cy="520.5" r="4.8"/>
		<circle class="st4" cx="967.9" cy="579.8" r="5.1"/>
		<circle class="st4" cx="1104" cy="635.3" r="4.4"/>
		<circle class="st4" cx="1027.2" cy="591" r="5.6"/>
		<circle class="st4" cx="1081.5" cy="521.1" r="4.4"/>
		<circle class="st4" cx="1351.3" cy="555.8" r="4.5"/>
		<circle class="st4" cx="1341.2" cy="555.9" r="4.5"/>
		<circle class="st4" cx="999" cy="513.7" r="5"/>
		<circle class="st4" cx="1068.8" cy="611.1" r="4.9"/>
		<circle class="st4" cx="1011" cy="512.5" r="5"/>
		<circle class="st4" cx="1036.1" cy="599.4" r="5.4"/>
		<circle class="st4" cx="1048.2" cy="592.8" r="5.1"/>
		<circle class="st4" cx="1116.3" cy="610.4" r="4.8"/>
		<circle class="st4" cx="1003.5" cy="500.6" r="5"/>
		<circle class="st4" cx="1023.3" cy="506.8" r="4.8"/>
		<circle class="st4" cx="1035.9" cy="515.1" r="4.7"/>
		<circle class="st4" cx="1069.2" cy="535.3" r="4.4"/>
		<circle class="st4" cx="1028.7" cy="528.9" r="4.6"/>
		<circle class="st4" cx="1055.6" cy="489.8" r="4.4"/>
		<circle class="st4" cx="1050.5" cy="549.5" r="4.4"/>
		<circle class="st4" cx="1037.2" cy="571.8" r="4.4"/>
		<circle class="st4" cx="967" cy="533.1" r="4.5"/>
		<circle class="st4" cx="1070.3" cy="592.5" r="4.6"/>
		<circle class="st4" cx="954.9" cy="531" r="4.5"/>
		<circle class="st4" cx="983.5" cy="624.7" r="4.6"/>
		<circle class="st4" cx="1024.1" cy="636.3" r="4.4"/>
		<circle class="st4" cx="1007.4" cy="603" r="4.7"/>
		<circle class="st4" cx="1117.7" cy="645.6" r="4.5"/>
		<circle class="st4" cx="1132.2" cy="625.9" r="4.4"/>
		<circle class="st4" cx="1111.9" cy="547.5" r="4.4"/>
		<circle class="st4" cx="1026.7" cy="540.2" r="4.7"/>
		<circle class="st4" cx="1081.9" cy="544.1" r="4.4"/>
		<circle class="st4" cx="995.9" cy="625.6" r="4.6"/>
		<circle class="st4" cx="1044.4" cy="525.7" r="4.5"/>
		<circle class="st4" cx="1001.9" cy="613" r="4.6"/>
	</g>
	<g id="cluster-4">
		<circle class="st5" cx="773.7" cy="538.5" r="12.1"/>
		<circle class="st5" cx="675.5" cy="543.1" r="6.2"/>
		<circle class="st5" cx="791" cy="551.7" r="5"/>
		<circle class="st5" cx="329.1" cy="563.5" r="5"/>
		<circle class="st5" cx="752.1" cy="538.4" r="6"/>
		<circle class="st5" cx="755.7" cy="558.3" r="11.1"/>
		<circle class="st5" cx="794.6" cy="519.7" r="4.7"/>
		<circle class="st5" cx="809.6" cy="521.9" r="6.4"/>
		<circle class="st5" cx="807.7" cy="541.7" r="4.9"/>
		<circle class="st5" cx="335.3" cy="554.6" r="4.7"/>
		<circle class="st5" cx="798.4" cy="531.2" r="4.7"/>
		<circle class="st5" cx="780.3" cy="565.9" r="8.2"/>
		<circle class="st5" cx="794.1" cy="541.1" r="4.7"/>
		<circle class="st5" cx="815" cy="550.9" r="4.5"/>
		<circle class="st5" cx="879" cy="567.9" r="13.7"/>
		<circle class="st5" cx="545.6" cy="614.9" r="6.1"/>
		<circle class="st5" cx="1032.3" cy="331.6" r="4.6"/>
		<circle class="st5" cx="821" cy="581" r="4.5"/>
		<circle class="st5" cx="792.4" cy="589.4" r="4.4"/>
		<circle class="st5" cx="828.4" cy="526.7" r="4.6"/>
		<circle class="st5" cx="922" cy="455.8" r="4.4"/>
		<circle class="st5" cx="1022.9" cy="326.3" r="4.6"/>
		<circle class="st5" cx="913.7" cy="600.3" r="4.9"/>
		<circle class="st5" cx="880.1" cy="591.1" r="4.9"/>
		<circle class="st5" cx="901.3" cy="581.4" r="7.7"/>
		<circle class="st5" cx="1161.3" cy="888.6" r="4.5"/>
		<circle class="st5" cx="1167.9" cy="896.6" r="4.4"/>
		<circle class="st5" cx="926.6" cy="313.9" r="6.9"/>
		<circle class="st5" cx="923.9" cy="586.7" r="5.3"/>
		<circle class="st5" cx="938.5" cy="582.7" r="6.2"/>
		<circle class="st5" cx="893" cy="538.9" r="6"/>
		<circle class="st5" cx="838.2" cy="727.3" r="4.7"/>
		<circle class="st5" cx="841" cy="717" r="4.4"/>
		<circle class="st5" cx="897.6" cy="607.5" r="5.1"/>
		<circle class="st5" cx="916.6" cy="572.9" r="6.6"/>
		<circle class="st5" cx="901.2" cy="621.2" r="4.6"/>
		<circle class="st5" cx="902.4" cy="597.1" r="4.8"/>
		<circle class="st5" cx="911.6" cy="613.5" r="5.6"/>
		<circle class="st5" cx="901.2" cy="565.1" r="4.8"/>
		<circle class="st5" cx="912.5" cy="589.4" r="4.7"/>
		<circle class="st5" cx="898.9" cy="552.9" r="4.6"/>
		<circle class="st5" cx="926.5" cy="600.3" r="4.6"/>
		<circle class="st5" cx="891.9" cy="593.8" r="4.8"/>
		<circle class="st5" cx="931.5" cy="615.5" r="4.5"/>
		<circle class="st5" cx="603.2" cy="99" r="4.9"/>
		<circle class="st5" cx="586.4" cy="102.5" r="4.7"/>
		<circle class="st5" cx="595.7" cy="81.8" r="4.7"/>
		<circle class="st5" cx="607" cy="88" r="4.5"/>
		<circle class="st5" cx="591.4" cy="91.9" r="4.6"/>
		<circle class="st5" cx="608.4" cy="110.5" r="4.7"/>
		<circle class="st5" cx="936.3" cy="304" r="4.5"/>
		<circle class="st5" cx="938.4" cy="321" r="4.5"/>
		<circle class="st5" cx="946.5" cy="313.1" r="4.7"/>
		<circle class="st5" cx="909.9" cy="557.3" r="4.7"/>
		<circle class="st5" cx="919.7" cy="547.1" r="4.5"/>
		<circle class="st5" cx="909" cy="545.3" r="4.9"/>
		<circle class="st5" cx="944.5" cy="297.2" r="4.5"/>
		<circle class="st5" cx="944.7" cy="595.7" r="4.8"/>
		<circle class="st5" cx="1086.7" cy="685.7" r="4.5"/>
		<circle class="st5" cx="1080.9" cy="676.4" r="4.6"/>
		<circle class="st5" cx="956.3" cy="680.7" r="4.4"/>
		<circle class="st5" cx="933.9" cy="400.8" r="4.6"/>
		<circle class="st5" cx="955.6" cy="306.4" r="4.4"/>
	</g>
	<g id="cluster-3">
		<circle class="st6" cx="387.1" cy="714" r="5.1"/>
		<circle class="st6" cx="355.6" cy="683.1" r="12"/>
		<circle class="st6" cx="320.3" cy="683.3" r="5.3"/>
		<circle class="st6" cx="347.2" cy="663.1" r="6.4"/>
		<circle class="st6" cx="323.7" cy="695.4" r="5.5"/>
		<circle class="st6" cx="366.1" cy="663.3" r="7"/>
		<circle class="st6" cx="297" cy="688.7" r="4.7"/>
		<circle class="st6" cx="310.4" cy="690.1" r="5.3"/>
		<circle class="st6" cx="393.3" cy="688.5" r="8.6"/>
		<circle class="st6" cx="314.5" cy="650.7" r="4.6"/>
		<circle class="st6" cx="326.3" cy="651" r="4.8"/>
		<circle class="st6" cx="321" cy="661.6" r="4.9"/>
		<circle class="st6" cx="333.1" cy="662.8" r="4.8"/>
		<circle class="st6" cx="385.9" cy="662.3" r="5.5"/>
		<circle class="st6" cx="338.3" cy="695.9" r="5.8"/>
		<circle class="st6" cx="333.7" cy="684.3" r="5.5"/>
		<circle class="st6" cx="326.6" cy="672.2" r="4.8"/>
		<circle class="st6" cx="376.5" cy="674.7" r="5.7"/>
		<circle class="st6" cx="308.3" cy="662.8" r="4.5"/>
		<circle class="st6" cx="356.8" cy="651.6" r="5.6"/>
		<circle class="st6" cx="329" cy="707.9" r="4.4"/>
		<circle class="st6" cx="338.8" cy="707.8" r="4.5"/>
		<circle class="st6" cx="368.4" cy="648.4" r="5"/>
		<circle class="st6" cx="338.9" cy="652.4" r="4.4"/>
		<circle class="st6" cx="361.5" cy="638.5" r="4.6"/>
		<circle class="st6" cx="375.3" cy="689.5" r="5.1"/>
		<circle class="st6" cx="348.5" cy="641.9" r="4.4"/>
		<circle class="st6" cx="351.3" cy="705" r="6.2"/>
		<circle class="st6" cx="303.6" cy="703.7" r="4.5"/>
		<circle class="st6" cx="293.3" cy="705.8" r="4.4"/>
		<circle class="st6" cx="348.6" cy="718.5" r="5"/>
		<circle class="st6" cx="358.7" cy="728.9" r="4.8"/>
		<circle class="st6" cx="338.2" cy="673.5" r="5.1"/>
		<circle class="st6" cx="337.5" cy="730.9" r="6.2"/>
		<circle class="st6" cx="326.2" cy="737.9" r="4.6"/>
		<circle class="st6" cx="314.7" cy="739.5" r="4.7"/>
		<circle class="st6" cx="325.5" cy="726.9" r="5.1"/>
		<circle class="st6" cx="336.9" cy="744.8" r="5"/>
		<circle class="st6" cx="294.7" cy="751.7" r="4.6"/>
		<circle class="st6" cx="375" cy="714.3" r="4.8"/>
		<circle class="st6" cx="158.8" cy="746.8" r="4.5"/>
		<circle class="st6" cx="367.6" cy="701.8" r="6.5"/>
		<circle class="st6" cx="335.4" cy="717.6" r="4.7"/>
		<circle class="st6" cx="381.2" cy="703.4" r="4.7"/>
		<circle class="st6" cx="362.5" cy="715" r="5.5"/>
		<circle class="st6" cx="88.8" cy="849" r="4.6"/>
		<circle class="st6" cx="94.3" cy="839.7" r="4.6"/>
		<circle class="st6" cx="100.4" cy="849.2" r="4.8"/>
		<circle class="st6" cx="318.1" cy="757.5" r="4.7"/>
		<circle class="st6" cx="327.2" cy="750.5" r="4.8"/>
		<circle class="st6" cx="316.5" cy="707.6" r="4.6"/>
		<circle class="st6" cx="169" cy="743.4" r="4.7"/>
	</g>
	<g id="cluster-2">
		<circle class="st7" cx="691.4" cy="522.2" r="14.9"/>
		<circle class="st7" cx="839.1" cy="477.9" r="9.9"/>
		<circle class="st7" cx="774.1" cy="493.6" r="12.2"/>
		<circle class="st7" cx="833.9" cy="419.7" r="5.6"/>
		<circle class="st7" cx="826.5" cy="464.4" r="6"/>
		<circle class="st7" cx="807.9" cy="479.8" r="12.1"/>
		<circle class="st7" cx="830.5" cy="446.7" r="7.4"/>
		<circle class="st7" cx="844.3" cy="459.2" r="6.5"/>
		<circle class="st7" cx="857.7" cy="418.7" r="11.2"/>
		<circle class="st7" cx="813.6" cy="445.8" r="4.8"/>
		<circle class="st7" cx="854.3" cy="471.3" r="5.4"/>
		<circle class="st7" cx="933.6" cy="437.6" r="4.8"/>
		<circle class="st7" cx="846.7" cy="494.1" r="5"/>
		<circle class="st7" cx="858" cy="459.7" r="5.1"/>
		<circle class="st7" cx="810.5" cy="458.4" r="5.5"/>
		<circle class="st7" cx="756.9" cy="475.5" r="6.2"/>
		<circle class="st7" cx="770.4" cy="466.8" r="6.7"/>
		<circle class="st7" cx="758.4" cy="458.3" r="5.3"/>
		<circle class="st7" cx="786.2" cy="469.8" r="6.2"/>
		<circle class="st7" cx="798.1" cy="459.1" r="5.7"/>
		<circle class="st7" cx="768.9" cy="329.7" r="4.7"/>
		<circle class="st7" cx="589.1" cy="471.4" r="4.7"/>
		<circle class="st7" cx="786.7" cy="434" r="4.9"/>
		<circle class="st7" cx="924.5" cy="329" r="5"/>
		<circle class="st7" cx="742.9" cy="403.1" r="5"/>
		<circle class="st7" cx="770.7" cy="445" r="7.2"/>
		<circle class="st7" cx="800.7" cy="437.5" r="4.7"/>
		<circle class="st7" cx="639.9" cy="498.3" r="4.4"/>
		<circle class="st7" cx="803.6" cy="613.8" r="5.6"/>
		<circle class="st7" cx="919.9" cy="276.6" r="4.7"/>
		<circle class="st7" cx="873.4" cy="404" r="6.6"/>
		<circle class="st7" cx="877.6" cy="475.8" r="4.6"/>
		<circle class="st7" cx="898.8" cy="446.6" r="4.4"/>
		<circle class="st7" cx="864.5" cy="477" r="5.3"/>
		<circle class="st7" cx="869.2" cy="465.1" r="4.7"/>
		<circle class="st7" cx="666.5" cy="463.2" r="5.3"/>
		<circle class="st7" cx="859.6" cy="399.7" r="4.7"/>
		<circle class="st7" cx="660.8" cy="499.7" r="5.4"/>
		<circle class="st7" cx="866.4" cy="383.5" r="4.6"/>
		<circle class="st7" cx="862.7" cy="344.3" r="4.5"/>
		<circle class="st7" cx="924.8" cy="415.5" r="4.5"/>
		<circle class="st7" cx="879.5" cy="448.5" r="4.9"/>
		<circle class="st7" cx="855.1" cy="483.5" r="5.4"/>
		<circle class="st7" cx="831" cy="332.7" r="4.6"/>
		<circle class="st7" cx="892" cy="417.6" r="4.5"/>
		<circle class="st7" cx="885.4" cy="426.3" r="5"/>
		<circle class="st7" cx="678" cy="492.6" r="9"/>
		<circle class="st7" cx="647.1" cy="466" r="4.5"/>
		<circle class="st7" cx="784.8" cy="402.1" r="4.5"/>
		<circle class="st7" cx="705.1" cy="430.4" r="4.5"/>
		<circle class="st7" cx="714" cy="510.3" r="4.9"/>
		<circle class="st7" cx="825.5" cy="508.1" r="4.4"/>
		<circle class="st7" cx="778.2" cy="362.1" r="4.6"/>
		<circle class="st7" cx="778.7" cy="351.7" r="4.5"/>
		<circle class="st7" cx="780.6" cy="314.7" r="4.5"/>
		<circle class="st7" cx="1081.6" cy="82.7" r="5"/>
		<circle class="st7" cx="803.3" cy="448.5" r="4.4"/>
		<circle class="st7" cx="825.6" cy="377.7" r="4.4"/>
		<circle class="st7" cx="804.9" cy="400.2" r="4.6"/>
		<circle class="st7" cx="774.7" cy="424.7" r="5.1"/>
		<circle class="st7" cx="879.6" cy="461.9" r="4.6"/>
		<circle class="st7" cx="670.4" cy="509.4" r="4.7"/>
		<circle class="st7" cx="791.9" cy="331.3" r="4.5"/>
		<circle class="st7" cx="798.1" cy="497.8" r="4.7"/>
		<circle class="st7" cx="790.9" cy="446.9" r="5.4"/>
		<circle class="st7" cx="812.2" cy="431.5" r="4.5"/>
		<circle class="st7" cx="644" cy="481.3" r="4.4"/>
		<circle class="st7" cx="780.5" cy="457.5" r="4.7"/>
		<circle class="st7" cx="720.1" cy="363.5" r="5.5"/>
		<circle class="st7" cx="768.6" cy="410.1" r="4.8"/>
		<circle class="st7" cx="445.4" cy="245.9" r="4.8"/>
		<circle class="st7" cx="837.2" cy="349.2" r="4.4"/>
		<circle class="st7" cx="701.1" cy="321.2" r="4.7"/>
		<circle class="st7" cx="618.5" cy="326.2" r="4.6"/>
		<circle class="st7" cx="615.7" cy="508.1" r="4.7"/>
		<circle class="st7" cx="674.8" cy="634.2" r="4.5"/>
		<circle class="st7" cx="630.2" cy="424.7" r="4.4"/>
		<circle class="st7" cx="576.9" cy="420.2" r="4.5"/>
		<circle class="st7" cx="667.8" cy="479.3" r="4.7"/>
		<circle class="st7" cx="659.6" cy="487.3" r="4.9"/>
		<circle class="st7" cx="573.7" cy="429.4" r="4.4"/>
		<circle class="st7" cx="650.4" cy="493" r="4.7"/>
		<circle class="st7" cx="599.2" cy="436.2" r="4.5"/>
		<circle class="st7" cx="438" cy="237.6" r="4.6"/>
		<circle class="st7" cx="434.1" cy="247.6" r="4.6"/>
		<circle class="st7" cx="564.3" cy="398.9" r="4.4"/>
		<circle class="st7" cx="650.1" cy="506.6" r="4.5"/>
		<circle class="st7" cx="700.1" cy="332.1" r="4.6"/>
		<circle class="st7" cx="749.8" cy="419.1" r="5"/>
		<circle class="st7" cx="724.9" cy="386.7" r="4.5"/>
		<circle class="st7" cx="666.3" cy="519.5" r="4.4"/>
		<circle class="st7" cx="659.3" cy="512.3" r="4.6"/>
		<circle class="st7" cx="1128.1" cy="13.7" r="4.6"/>
		<circle class="st7" cx="1134.2" cy="4.8" r="4.8"/>
		<circle class="st7" cx="848.6" cy="399.3" r="4.8"/>
		<circle class="st7" cx="901.5" cy="359.7" r="4.4"/>
		<circle class="st7" cx="854.2" cy="448.3" r="4.4"/>
		<circle class="st7" cx="890.9" cy="469" r="4.4"/>
		<circle class="st7" cx="951.7" cy="345.7" r="4.7"/>
		<circle class="st7" cx="979.4" cy="323.9" r="4.5"/>
		<circle class="st7" cx="961.4" cy="338.5" r="4.7"/>
		<circle class="st7" cx="970.7" cy="330.8" r="4.8"/>
		<circle class="st7" cx="873.5" cy="295.1" r="4.4"/>
		<circle class="st7" cx="872.4" cy="305.5" r="4.6"/>
		<circle class="st7" cx="898.4" cy="390.8" r="4.7"/>
		<circle class="st7" cx="910.9" cy="390.3" r="4.6"/>
		<circle class="st7" cx="881.1" cy="388.1" r="4.5"/>
	</g>
	<g id="cluster-1">
		<circle class="st8" cx="629.5" cy="561.6" r="5.5"/>
		<circle class="st8" cx="704.1" cy="549" r="9.3"/>
		<circle class="st8" cx="687.4" cy="577.1" r="17.2"/>
		<circle class="st8" cx="722.6" cy="596" r="14.5"/>
		<circle class="st8" cx="659.9" cy="534.2" r="6.5"/>
		<circle class="st8" cx="724.9" cy="563.4" r="11.5"/>
		<circle class="st8" cx="662" cy="553.2" r="6.4"/>
		<circle class="st8" cx="768.6" cy="516.3" r="5.4"/>
		<circle class="st8" cx="720.2" cy="487.2" r="4.7"/>
		<circle class="st8" cx="688" cy="654.6" r="6.5"/>
		<circle class="st8" cx="751.2" cy="520.1" r="9.2"/>
		<circle class="st8" cx="704.3" cy="494.6" r="8"/>
		<circle class="st8" cx="728.4" cy="534.1" r="12.2"/>
		<circle class="st8" cx="741.8" cy="614.8" r="7.7"/>
		<circle class="st8" cx="662.8" cy="644" r="5.9"/>
		<circle class="st8" cx="682.3" cy="617.1" r="5.7"/>
		<circle class="st8" cx="763.2" cy="582.2" r="7.1"/>
		<circle class="st8" cx="744.5" cy="578.6" r="7.8"/>
		<circle class="st8" cx="643.4" cy="548" r="7.7"/>
		<circle class="st8" cx="755.3" cy="600.3" r="7.2"/>
		<circle class="st8" cx="659.6" cy="586.8" r="6.9"/>
		<circle class="st8" cx="631.4" cy="592.4" r="4.5"/>
		<circle class="st8" cx="729.6" cy="498.5" r="5.1"/>
		<circle class="st8" cx="682" cy="603.5" r="5.6"/>
		<circle class="st8" cx="648.5" cy="598.2" r="4.9"/>
		<circle class="st8" cx="651.3" cy="520.7" r="4.8"/>
		<circle class="st8" cx="810.7" cy="416.2" r="4.8"/>
		<circle class="st8" cx="744.4" cy="501.2" r="6.7"/>
		<circle class="st8" cx="733.6" cy="511" r="4.9"/>
		<circle class="st8" cx="569.7" cy="277.2" r="4.8"/>
		<circle class="st8" cx="647" cy="382.2" r="4.7"/>
		<circle class="st8" cx="692.3" cy="470.9" r="6.3"/>
		<circle class="st8" cx="621.4" cy="585.1" r="4.5"/>
		<circle class="st8" cx="638.1" cy="602.2" r="4.5"/>
		<circle class="st8" cx="750.7" cy="680.4" r="5.1"/>
		<circle class="st8" cx="709.6" cy="619.8" r="6"/>
		<circle class="st8" cx="495.2" cy="523" r="4.4"/>
		<circle class="st8" cx="485.6" cy="519.1" r="4.4"/>
		<circle class="st8" cx="695.5" cy="623.4" r="5.5"/>
		<circle class="st8" cx="761.3" cy="621.9" r="6.6"/>
		<circle class="st8" cx="619.1" cy="392.8" r="4.6"/>
		<circle class="st8" cx="789.2" cy="666.4" r="4.8"/>
		<circle class="st8" cx="766.7" cy="734.2" r="4.8"/>
		<circle class="st8" cx="648.2" cy="609.3" r="4.6"/>
		<circle class="st8" cx="622.5" cy="616.4" r="4.6"/>
		<circle class="st8" cx="625.7" cy="489.4" r="6.3"/>
		<circle class="st8" cx="634" cy="445.4" r="5.6"/>
		<circle class="st8" cx="628.8" cy="537.8" r="5.6"/>
		<circle class="st8" cx="626.8" cy="523.6" r="5.7"/>
		<circle class="st8" cx="640.4" cy="529.6" r="5.6"/>
		<circle class="st8" cx="637.3" cy="514.3" r="5.5"/>
		<circle class="st8" cx="660.5" cy="571.4" r="4.5"/>
		<circle class="st8" cx="644.5" cy="584.4" r="5.1"/>
		<circle class="st8" cx="697" cy="609.4" r="6.1"/>
		<circle class="st8" cx="725.1" cy="660.9" r="6.1"/>
		<circle class="st8" cx="664.1" cy="669.2" r="4.9"/>
		<circle class="st8" cx="668.2" cy="610.4" r="5.1"/>
		<circle class="st8" cx="735.3" cy="632" r="7.4"/>
		<circle class="st8" cx="800.3" cy="669.1" r="5"/>
		<circle class="st8" cx="735.1" cy="649.4" r="4.5"/>
		<circle class="st8" cx="719" cy="631.8" r="5.4"/>
		<circle class="st8" cx="622.2" cy="656" r="4.4"/>
		<circle class="st8" cx="687" cy="548.9" r="5.1"/>
		<circle class="st8" cx="687.1" cy="633" r="4.6"/>
		<circle class="st8" cx="752.3" cy="637.9" r="4.9"/>
		<circle class="st8" cx="653.7" cy="664.3" r="4.9"/>
		<circle class="st8" cx="611" cy="683.8" r="4.4"/>
		<circle class="st8" cx="659.3" cy="602.9" r="4.6"/>
		<circle class="st8" cx="659.9" cy="619.5" r="4.6"/>
		<circle class="st8" cx="682.8" cy="666.6" r="4.4"/>
		<circle class="st8" cx="704.9" cy="635.3" r="6.1"/>
		<circle class="st8" cx="646.1" cy="568.2" r="6.3"/>
		<circle class="st8" cx="561.9" cy="623" r="5.8"/>
		<circle class="st8" cx="556.5" cy="604.1" r="5.1"/>
		<circle class="st8" cx="738" cy="762.6" r="4.7"/>
		<circle class="st8" cx="748.5" cy="760.3" r="4.7"/>
		<circle class="st8" cx="741.3" cy="752.5" r="4.6"/>
		<circle class="st8" cx="731" cy="678.1" r="4.5"/>
		<circle class="st8" cx="633.2" cy="466.7" r="4.4"/>
		<circle class="st8" cx="774" cy="691.7" r="4.4"/>
		<circle class="st8" cx="765.8" cy="638" r="5.1"/>
		<circle class="st8" cx="592.2" cy="569.5" r="4.8"/>
		<circle class="st8" cx="715.9" cy="676.4" r="5"/>
		<circle class="st8" cx="650.1" cy="394.5" r="4.7"/>
		<circle class="st8" cx="623.4" cy="637" r="4.5"/>
		<circle class="st8" cx="588.1" cy="399.1" r="4.4"/>
		<circle class="st8" cx="703" cy="376.1" r="5"/>
		<circle class="st8" cx="742.3" cy="689.9" r="5.1"/>
		<circle class="st8" cx="780.7" cy="612.1" r="5.3"/>
		<circle class="st8" cx="689.3" cy="680.1" r="4.5"/>
		<circle class="st8" cx="697.4" cy="672.9" r="4.6"/>
		<circle class="st8" cx="742.9" cy="665.2" r="4.7"/>
		<circle class="st8" cx="711.7" cy="648.6" r="4.8"/>
		<circle class="st8" cx="723.8" cy="643.7" r="5"/>
		<circle class="st8" cx="708.7" cy="659" r="4.7"/>
		<circle class="st8" cx="610.7" cy="613" r="4.4"/>
		<circle class="st8" cx="554.1" cy="578.6" r="4.6"/>
		<circle class="st8" cx="747.9" cy="653.3" r="4.4"/>
		<circle class="st8" cx="724.9" cy="620.1" r="5.5"/>
		
			<ellipse transform="matrix(0.9999 -1.723368e-02 1.723368e-02 0.9999 -13.6936 12.5443)" class="st8" cx="721" cy="800.8" rx="4.6" ry="4.6"/>
		<circle class="st8" cx="556.7" cy="258.5" r="4.6"/>
		<circle class="st8" cx="561.6" cy="267.9" r="4.7"/>
		<circle class="st8" cx="628.9" cy="356.4" r="4.5"/>
		<circle class="st8" cx="597.5" cy="618.9" r="5.4"/>
		<circle class="st8" cx="562.2" cy="635.9" r="4.5"/>
		<circle class="st8" cx="574.5" cy="632.9" r="5.9"/>
		<circle class="st8" cx="585.5" cy="610.5" r="4.9"/>
		<circle class="st8" cx="585.7" cy="623.3" r="5"/>
		<circle class="st8" cx="574.6" cy="616.9" r="4.9"/>
		<circle class="st8" cx="574.2" cy="605.4" r="4.8"/>
		<circle class="st8" cx="670.4" cy="597.1" r="4.9"/>
		<circle class="st8" cx="472.4" cy="660.4" r="4.5"/>
		<circle class="st8" cx="621.3" cy="601.9" r="4.6"/>
		
			<ellipse transform="matrix(2.628849e-02 -0.9997 0.9997 2.628849e-02 -105.7176 1513.5734)" class="st8" cx="724.1" cy="811.1" rx="4.5" ry="4.5"/>
		<circle class="st8" cx="714.2" cy="809.1" r="4.5"/>
		<circle class="st8" cx="492.9" cy="650.3" r="4.5"/>
		<circle class="st8" cx="568.5" cy="645.6" r="4.4"/>
		<circle class="st8" cx="632.8" cy="626.3" r="4.6"/>
		<circle class="st8" cx="643.3" cy="624.9" r="4.7"/>
		<circle class="st8" cx="639.2" cy="636.6" r="4.5"/>
		<circle class="st8" cx="634.3" cy="613" r="4.4"/>
	</g>
</g>
<g id="labels">
	<g id="main--characters">
		<text transform="matrix(1 0 0 1 665.7021 523.6299)" class="st9 st10">Jaime-Lannister</text>
		<text transform="matrix(1 0 0 1 678.792 550.7334)" class="st9 st10">Tywin-Lannister</text>
		<text transform="matrix(1 0 0 1 322.9463 684.8369)" class="st9 st10">Daenerys-Targaryen</text>
		<text transform="matrix(1 0 0 1 752.4727 539.9404)" class="st9 st10">Eddard-Stark</text>
		<text transform="matrix(1 0 0 1 967.0234 558.46)" class="st9 st10">Jon-Snow</text>
		<text transform="matrix(1 0 0 1 727.0469 559.709)" class="st9 st10">Robert-Baratheon</text>
		<text transform="matrix(1 0 0 1 661.561 578.8359)" class="st9 st10">Tyrion-Lannister</text>
		<text transform="matrix(1 0 0 1 707.7339 464.4922)" class="st9 st10">Arya-Stark</text>
		<text transform="matrix(1 0 0 1 752.2656 495.3818)" class="st9 st10">Catelyn-Stark</text>
		<text transform="matrix(1 0 0 1 696.1582 597.4355)" class="st9 st10">Cersei-Lannister</text>
		<text transform="matrix(1 0 0 1 696.2534 565.1494)" class="st9 st10">Joffrey-Baratheon</text>
		<text transform="matrix(1 0 0 1 789.6895 481.2207)" class="st9 st10">Robb-Stark</text>
		<text transform="matrix(1 0 0 1 708.5371 535.5254)" class="st9 st10">Sansa-Stark</text>
		<text transform="matrix(1 0 0 1 367.6357 690.1846)" class="st9 st10">Barristan-Selmy</text>
		<text transform="matrix(1 0 0 1 833.8174 420.4375)" class="st9 st10">Theon-Greyjoy</text>
		<text transform="matrix(1 0 0 1 849.0986 569.3066)" class="st9 st10">Stannis-Baratheon</text>
	</g>
	<g id="other--characters">
		<text transform="matrix(1 0 0 1 601.4331 563.002)" class="st9 st10">Addam-Marbrand</text>
		<text transform="matrix(1 0 0 1 942.4766 580.9512)" class="st9 st10">Aemon-Targaryen-(Maester-Aemon)</text>
		<text transform="matrix(1 0 0 1 936.3936 571.5947)" class="st9 st10">Alliser-Thorne</text>
		<text transform="matrix(1 0 0 1 957.4678 600.8682)" class="st9 st10">Bowen-Marsh</text>
		<text transform="matrix(1 0 0 1 962.2715 585.291)" class="st9 st10">Jeor-Mormont</text>
		<text transform="matrix(1 0 0 1 990.1436 567.5391)" class="st9 st10">Samwell-Tarly</text>
		<text transform="matrix(1 0 0 1 645.8345 544.7871)" class="st9 st10">Aerys-II-Targaryen</text>
		<text transform="matrix(1 0 0 1 736.4365 540.0879)" class="st9 st10">Jon-Arryn</text>
		<text transform="matrix(1 0 0 1 337.3789 664.8555)" class="st9 st10">Drogo</text>
		<text transform="matrix(1 0 0 1 313.8262 697.1006)" class="st9 st10">Jhogo</text>
		<text transform="matrix(1 0 0 1 341.6104 664.7344)" class="st9 st10">Jorah-Mormont</text>
		<text transform="matrix(1 0 0 1 1016.0986 578.4697)" class="st9 st10">Grenn</text>
		<text transform="matrix(1 0 0 1 1005.6699 585.1094)" class="st9 st10">Pypar</text>
		<text transform="matrix(1 0 0 1 703.1714 410.5073)" class="st9 st10">Harwin</text>
		<text transform="matrix(1 0 0 1 790.5371 523.6777)" class="st9 st10">Jory-Cassel</text>
		<text transform="matrix(1 0 0 1 935.3359 545.833)" class="st9 st10">Benjen-Stark</text>
		<text transform="matrix(1 0 0 1 821.8125 479.3047)" class="st9 st10">Bran-Stark</text>
		<text transform="matrix(1 0 0 1 642.8413 535.9482)" class="st9 st10">Ilyn-Payne</text>
		<text transform="matrix(1 0 0 1 813.875 421.3848)" class="st9 st10">Jeyne-Poole</text>
		<text transform="matrix(1 0 0 1 642.4414 554.8721)" class="st9 st10">Meryn-Trant</text>
		<text transform="matrix(1 0 0 1 754.3447 517.6777)" class="st9 st10">Mordane</text>
		<text transform="matrix(1 0 0 1 656.7578 656.3213)" class="st9 st10">Myrcella-Baratheon</text>
		<text transform="matrix(1 0 0 1 729.7725 521.7842)" class="st9 st10">Petyr-Baelish</text>
		<text transform="matrix(1 0 0 1 805.8896 465.7979)" class="st9 st10">Rickon-Stark</text>
		<text transform="matrix(1 0 0 1 807.8389 448.1284)" class="st9 st10">Rodrik-Cassel</text>
		<text transform="matrix(1 0 0 1 677.9966 496.3418)" class="st9 st10">Sandor-Clegane</text>
		<text transform="matrix(1 0 0 1 710.126 616.2344)" class="st9 st10">Tommen-Baratheon</text>
		<text transform="matrix(1 0 0 1 719.4395 428.9155)" class="st9 st10">Yoren</text>
		<text transform="matrix(1 0 0 1 886.209 314.8994)" class="st9 st10">Balon-Greyjoy</text>
		<text transform="matrix(1 0 0 1 641.3848 645.4033)" class="st9 st10">Balon-Swann</text>
		<text transform="matrix(1 0 0 1 753.2607 567.5996)" class="st9 st10">Renly-Baratheon</text>
		<text transform="matrix(1 0 0 1 661.3945 618.4658)" class="st9 st10">Boros-Blount</text>
		<text transform="matrix(1 0 0 1 751.5723 583.9395)" class="st9 st10">Pycelle</text>
		<text transform="matrix(1 0 0 1 735.5098 580.2939)" class="st9 st10">Varys</text>
		<text transform="matrix(1 0 0 1 834.8984 460.6484)" class="st9 st10">Luwin</text>
		<text transform="matrix(1 0 0 1 963.8447 526.9668)" class="st9 st10">Mance-Rayder</text>
		<text transform="matrix(1 0 0 1 660.8027 450.1426)" class="st9 st10">Beric-Dondarrion</text>
		<text transform="matrix(1 0 0 1 617.5586 549.7617)" class="st9 st10">Gregor-Clegane</text>
		<text transform="matrix(1 0 0 1 736.4316 601.9766)" class="st9 st10">Loras-Tyrell</text>
		<text transform="matrix(1 0 0 1 844.4697 472.665)" class="st9 st10">Hodor</text>
		<text transform="matrix(1 0 0 1 783.6094 459.8223)" class="st9 st10">Rickard-Karstark</text>
		<text transform="matrix(1 0 0 1 650.0078 588.2246)" class="st9 st10">Bronn</text>
		<text transform="matrix(1 0 0 1 673.603 604.9824)" class="st9 st10">Shae</text>
		<text transform="matrix(1 0 0 1 734.7695 477.1895)" class="st9 st10">Brynden-Tully</text>
		<text transform="matrix(1 0 0 1 749.0684 468.4834)" class="st9 st10">Edmure-Tully</text>
		<text transform="matrix(1 0 0 1 727.0996 502.9473)" class="st9 st10">Lysa-Arryn</text>
		<text transform="matrix(1 0 0 1 766.5176 471.5293)" class="st9 st10">Walder-Frey</text>
		<text transform="matrix(1 0 0 1 762.7871 460.7852)" class="st9 st10">Jon-Umber-(Greatjon)</text>
		<text transform="matrix(1 0 0 1 671.6836 472.6621)" class="st9 st10">Robert-Arryn</text>
		<text transform="matrix(1 0 0 1 832.2002 597.8672)" class="st9 st10">Janos-Slynt</text>
		<text transform="matrix(1 0 0 1 363.6416 663.9639)" class="st9 st10">Illyrio-Mopatis</text>
		<text transform="matrix(1 0 0 1 334.1089 697.2637)" class="st9 st10">Irri</text>
		<text transform="matrix(1 0 0 1 324.2256 686.0029)" class="st9 st10">Jhiqui</text>
		<text transform="matrix(1 0 0 1 514.5332 616.6133)" class="st9 st10">Rhaegar-Targaryen</text>
		<text transform="matrix(1 0 0 1 347.4458 676.4238)" class="st9 st10">Viserys-Targaryen</text>
		<text transform="matrix(1 0 0 1 698.1953 444.5322)" class="st9 st10">Gendry</text>
		<text transform="matrix(1 0 0 1 748.875 446.4072)" class="st9 st10">Roose-Bolton</text>
		<text transform="matrix(1 0 0 1 1038.5576 616.2275)" class="st9 st10">Hobb</text>
		<text transform="matrix(1 0 0 1 683.3008 621.2471)" class="st9 st10">Kevan-Lannister</text>
		<text transform="matrix(1 0 0 1 668.8096 624.8262)" class="st9 st10">Lancel-Lannister</text>
		<text transform="matrix(1 0 0 1 742.6836 623.5742)" class="st9 st10">Mace-Tyrell</text>
		<text transform="matrix(1 0 0 1 782.7461 615.5303)" class="st9 st10">Randyll-Tarly</text>
		<text transform="matrix(1 0 0 1 901.8652 292.6206)" class="st9 st10">Aeron-Greyjoy</text>
		<text transform="matrix(1 0 0 1 849.9727 405.6914)" class="st9 st10">Ramsay-Snow</text>
		<text transform="matrix(1 0 0 1 345.1221 652.9922)" class="st9 st10">Belwas</text>
		<text transform="matrix(1 0 0 1 874.6475 582.8408)" class="st9 st10">Davos-Seaworth</text>
		<text transform="matrix(1 0 0 1 605.0977 491.123)" class="st9 st10">Amory-Lorch</text>
		<text transform="matrix(1 0 0 1 618.7534 447.104)" class="st9 st10">Chiswyck</text>
		<text transform="matrix(1 0 0 1 616.4072 539.1953)" class="st9 st10">Dunsen</text>
		<text transform="matrix(1 0 0 1 710.7549 442.104)" class="st9 st10">Hot-Pie</text>
		<text transform="matrix(1 0 0 1 614.917 524.9961)" class="st9 st10">Polliver</text>
		<text transform="matrix(1 0 0 1 628.6016 531.0078)" class="st9 st10">Rafford</text>
		<text transform="matrix(1 0 0 1 626.8496 515.7217)" class="st9 st10">Tickler</text>
		<text transform="matrix(1 0 0 1 904.7334 315.6772)" class="st9 st10">Asha-Greyjoy</text>
		<text transform="matrix(1 0 0 1 915.2637 584.4502)" class="st9 st10">Selyse-Florent</text>
		<text transform="matrix(1 0 0 1 989.4463 538.1279)" class="st9 st10">Ygritte</text>
		<text transform="matrix(1 0 0 1 637.3418 501.3711)" class="st9 st10">Podrick-Payne</text>
		<text transform="matrix(1 0 0 1 882.1992 292.3677)" class="st9 st10">Victarion-Greyjoy</text>
		<text transform="matrix(1 0 0 1 664.5566 610.8369)" class="st9 st10">Osmund-Kettleblack</text>
		<text transform="matrix(1 0 0 1 704.4736 662.6035)" class="st9 st10">Gyles-Rosby</text>
		<text transform="matrix(1 0 0 1 835.0684 484.9336)" class="st9 st10">Meera-Reed</text>
		<text transform="matrix(1 0 0 1 864.7793 540.5938)" class="st9 st10">Wyman-Manderly</text>
		<text transform="matrix(1 0 0 1 652.1812 494.0645)" class="st9 st10">Brienne-of-Tarth</text>
		<text transform="matrix(1 0 0 1 710.2407 633.7402)" class="st9 st10">Margaery-Tyrell</text>
		<text transform="matrix(1 0 0 1 689.7065 633.4961)" class="st9 st10">Osney-Kettleblack</text>
		<text transform="matrix(1 0 0 1 1018.21 563.7168)" class="st9 st10">Craster</text>
		<text transform="matrix(1 0 0 1 971.5869 599.543)" class="st9 st10">Eddison-Tollett</text>
		<text transform="matrix(1 0 0 1 898.9512 574.2764)" class="st9 st10">Melisandre</text>
		<text transform="matrix(1 0 0 1 881.3369 614.9404)" class="st9 st10">Shireen-Baratheon</text>
		<text transform="matrix(1 0 0 1 981.5928 548.623)" class="st9 st10">Qhorin-Halfhand</text>
		<text transform="matrix(1 0 0 1 560.3213 807.7539)" class="st9 st10">Doran-Martell</text>
		<text transform="matrix(1 0 0 1 894.251 303.3726)" class="st9 st10">Euron-Greyjoy</text>
		<text transform="matrix(1 0 0 1 989.1885 525.958)" class="st9 st10">Rattleshirt</text>
		<text transform="matrix(1 0 0 1 693.0928 637.0107)" class="st9 st10">Qyburn</text>
		<text transform="matrix(1 0 0 1 622.2031 569.9131)" class="st9 st10">Oberyn-Martell</text>
		<text transform="matrix(1 0 0 1 505.5518 624.6895)" class="st9 st10">Aegon-Targaryen-(son-of-Rhaegar)</text>
		<text transform="matrix(1 0 0 1 686.2041 421.1309)" class="st9 st10">Lem</text>
		<text transform="matrix(1 0 0 1 327.0342 706.3955)" class="st9 st10">Daario-Naharis</text>
		<text transform="matrix(1 0 0 1 957.1777 614.8154)" class="st9 st10">Othell-Yarwyck</text>
		<text transform="matrix(1 0 0 1 772.2285 448.5884)" class="st9 st10">Lothar-Frey</text>
		<text transform="matrix(1 0 0 1 700.2061 365.2231)" class="st9 st10">Ryman-Frey</text>
		<text transform="matrix(1 0 0 1 1014.7588 553.3359)" class="st9 st10">Gilly</text>
		<text transform="matrix(1 0 0 1 1000.1533 536.083)" class="st9 st10">Tormund</text>
		<text transform="matrix(1 0 0 1 1018.9688 592.4189)" class="st9 st10">Satin</text>
		<text transform="matrix(1 0 0 1 1002.3984 601.1445)" class="st9 st10">Hareth-(Moles-Town)</text>
		<text transform="matrix(1 0 0 1 311.8042 732.6504)" class="st9 st10">Quentyn-Martell</text>
		<text transform="matrix(1 0 0 1 563.1533 831.3955)" class="st9 st10">Arianne-Martell</text>
		<text transform="matrix(1 0 0 1 703.6152 621.877)" class="st9 st10">Taena-of-Myr</text>
		<text transform="matrix(1 0 0 1 586.0518 620.3184)" class="st9 st10">Haldon</text>
		<text transform="matrix(1 0 0 1 549.0464 634.668)" class="st9 st10">Jon-Connington</text>
		<text transform="matrix(1 0 0 1 339.7598 703.4697)" class="st9 st10">Hizdahr-zo-Loraq</text>
		<text transform="matrix(1 0 0 1 330.6069 716.7324)" class="st9 st10">Skahaz-mo-Kandaq</text>
	</g>
</g>
</svg>
